0
SECTION
2
HEADER
9
$INSUNITS
70
4
9
$ACADVER
1
AC1014
9
$HANDSEED
5
FFFF
0
ENDSEC
0
SECTION
2
TABLES
0
TABLE
2
VPORT
5
8
100
AcDbSymbolTable
0
ENDTAB
0
TABLE
2
LTYPE
5
5
100
AcDbSymbolTable
0
LTYPE
5
14
100
AcDbSymbolTableRecord
100
AcDbLinetypeTableRecord
2
BYBLOCK
70
0
0
LTYPE
5
15
100
AcDbSymbolTableRecord
100
AcDbLinetypeTableRecord
2
BYLAYER
70
0
0
ENDTAB
0
TABLE
2
LAYER
5
2
100
AcDbSymbolTable
70
2
0
LAYER
5
50
100
AcDbSymbolTableRecord
100
AcDbLayerTableRecord
2
0
70
0
6
CONTINUOUS
0
ENDTAB
0
TABLE
2
STYLE
5
3
100
AcDbSymbolTable
70
1
0
STYLE
5
11
100
AcDbSymbolTableRecord
100
AcDbTextStyleTableRecord
2
STANDARD
70
0
0
ENDTAB
0
TABLE
2
VIEW
5
6
100
AcDbSymbolTable
70
0
0
ENDTAB
0
TABLE
2
UCS
5
7
100
AcDbSymbolTable
70
0
0
ENDTAB
0
TABLE
2
APPID
5
9
100
AcDbSymbolTable
70
2
0
APPID
5
12
100
AcDbSymbolTableRecord
100
AcDbRegAppTableRecord
2
ACAD
70
0
0
ENDTAB
0
TABLE
2
DIMSTYLE
5
A
100
AcDbSymbolTable
70
1
0
ENDTAB
0
TABLE
2
BLOCK_RECORD
5
1
100
AcDbSymbolTable
70
1
0
BLOCK_RECORD
5
1F
100
AcDbSymbolTableRecord
100
AcDbBlockTableRecord
2
*MODEL_SPACE
0
BLOCK_RECORD
5
1B
100
AcDbSymbolTableRecord
100
AcDbBlockTableRecord
2
*PAPER_SPACE
0
ENDTAB
0
ENDSEC
0
SECTION
2
BLOCKS
0
BLOCK
5
20
100
AcDbEntity
100
AcDbBlockBegin
2
*MODEL_SPACE
0
ENDBLK
5
21
100
AcDbEntity
100
AcDbBlockEnd
0
BLOCK
5
1C
100
AcDbEntity
100
AcDbBlockBegin
2
*PAPER_SPACE
0
ENDBLK
5
1D
100
AcDbEntity
100
AcDbBlockEnd
0
ENDSEC
0
SECTION
2
ENTITIES
0
LWPOLYLINE
5
100
100
AcDbEntity
8
0
100
AcDbPolyline
90
73
70
1
43
0.0
10
152.05835202818912
20
-88.939047405833179
10
150.98302813340121
20
-88.787199857547705
42
0.24978751526890025
10
143.58216954345733
20
-82.984116745015569
10
143.05296756222918
20
-82.89032066646142
10
134.30148257002367
20
-81.583342484949497
42
0.39985441556521983
10
125.73400418391442
20
-70.778356165472104
10
118.75261454791772
20
-69.797186096722029
10
111.76491751417643
20
-68.815129861815748
42
0.40036274922744614
10
100.54779557731244
20
-76.857252025813651
10
98.562386762507856
20
-76.578221166862278
10
91.787092455696751
20
-75.626017265683714
42
0.26668190594109986
10
82.54447026083453
20
-79.334873028602885
10
79.013097045640734
20
-78.838564711265803
10
72.06284072928716
20
-77.847088305325514
42
0.41421356237309637
10
60.750828285368968
20
-86.334630615575463
10
59.778753296005704
20
-93.148882870407434
10
53.502776408512958
20
-137.80478801606765
42
0.41170063434221044
10
61.928741583544529
20
-149.08688330629184
10
68.965407568522323
20
-150.13751738844098
10
75.968056616536984
20
-151.12167555829211
42
0.26335207196697397
10
85.132989987880649
20
-147.5100461108571
10
94.657418845036304
20
-148.82407521891469
10
95.641051780093719
20
-148.94377798602679
42
0.39122864690984521
10
106.64933900305033
20
-141.00573659796851
10
110.75339444712776
20
-141.58252397148021
42
0.39522968655283108
10
119.22273115332641
20
-152.3170549751172
10
126.21752758371161
20
-153.3744738419492
10
129.70615465368493
20
-153.86476839870414
42
0.25723672812338105
10
137.39020941652703
20
-159.70381669450563
10
139.34544800247753
20
-159.99181803448539
10
137.55093912609749
20
-172.76041225441952
42
0.41421356237310042
10
146.06188881541951
20
-184.0548239427649
10
160.03802712720844
20
-186.01904207249942
42
0.41431048323918457
10
171.33289879329374
20
-177.50481553777246
10
171.70749392065653
20
-174.83301810872894
10
256.10401510156601
20
-174.83301810872894
10
256.63471958863801
20
-178.60917677548952
42
0.4199929982983262
10
268.12385077348063
20
-187.09080259236578
10
274.96414379005006
20
-185.99170464110244
10
281.80487457319595
20
-185.03030263397181
42
0.41421356237310236
10
290.31582426251776
20
-173.73589094562644
10
288.50693890902153
20
-160.86500277494818
10
289.7556377544567
20
-160.68950959821615
42
0.26823992012581072
10
297.63980406465816
20
-154.52283333920536
10
300.72985931810132
20
-154.08855439782027
10
307.71455173291503
20
-153.10686645959507
42
0.40026453882964202
10
316.28066259640815
20
-142.28773255456414
10
318.27287851886513
20
-142.00774486798443
10
320.25989417446254
20
-141.7251460249214
42
0.4004595046929208
10
331.47763674485236
20
-149.77054466490716
10
341.9168666302906
20
-148.30340659400315
42
0.26107556969841805
10
351.02791753186057
20
-151.84903606000626
10
364.97015054490316
20
-149.88958300922297
42
0.41421356237309298
10
373.4811002342251
20
-138.5951713208776
10
372.49761447126531
20
-131.59730644898622
10
367.19511937135024
20
-93.868093049591508
10
366.21616094873616
20
-86.902441878356626
42
0.41158664822600277
10
355.01070217796507
20
-78.379397576873217
10
348.43487539076079
20
-79.243445701910261
10
344.45163398715465
20
-79.794411384890424
42
0.25892237323054107
10
335.39211879110496
20
-76.310849445178434
10
328.41925029521076
20
-77.290822196617071
10
326.41771734761221
20
-77.565097153931688
42
0.40016146924641099
10
315.20188829934102
20
-69.529793644020856
10
308.1988394230699
20
-70.514007971278033
10
301.23354897945194
20
-71.555134256966284
42
0.39605365218072802
10
292.74879862588108
20
-82.303977306674255
10
290.68355231526272
20
-82.594228744888923
10
283.91604746991055
20
-83.539662139275848
42
0.26772675016255582
10
276.0339967134455
20
-89.682097602047023
10
275.11793111022519
20
-89.810842225614053
10
246.79386156502161
20
-61.958929811533608
42
0.40570798955824472
10
180.60536412244576
20
-61.551290040483053
0
LWPOLYLINE
5
101
100
AcDbEntity
8
0
100
AcDbPolyline
90
8
70
1
43
0.0
10
187.21732552898771
20
-125.25429425349563
10
196.40971366958101
20
-134.44668231290228
42
-0.41421360379452155
10
196.40971371958105
20
-135.15378914408888
10
187.21732556958102
20
-144.34617729408882
42
-0.41421360379441113
10
186.51021873839457
20
-144.34617734408883
10
177.31783053839447
20
-135.15378914408888
42
-0.41421356237307294
10
177.3178305383945
20
-134.44668236290232
10
186.51021877898771
20
-125.25429420349559
42
-0.41421360379445266
0
LWPOLYLINE
5
102
100
AcDbEntity
8
0
100
AcDbPolyline
90
8
70
1
43
0.0
10
244.62737703839437
20
-120.32685266290231
10
253.81976522898765
20
-111.1344645534956
42
-0.41421364521576742
10
254.52687202898761
20
-111.1344645534956
10
263.71926016958088
20
-120.32685261290229
42
-0.41421360379444061
10
263.71926021958097
20
-121.03395944408888
10
254.52687206958092
20
-130.22634759408885
42
-0.41421360379444061
10
253.81976523839438
20
-130.22634764408883
10
244.62737708839441
20
-121.03395949408889
42
-0.41421360379441846
0
LWPOLYLINE
5
103
100
AcDbEntity
8
0
100
AcDbPolyline
90
8
70
1
43
0.0
10
363.02449807946749
20
-139.99745918786633
42
0.41421359390096424
10
363.45004555586763
20
-139.43273854971773
10
361.64079525586766
20
-126.55925364971779
42
0.41421356237297136
10
361.07607462520974
20
-126.13370622661535
10
348.20258977850733
20
-127.94295651912476
42
0.41421356237316409
10
347.77704229461676
20
-128.5076771039756
10
349.58629259461668
20
-141.38116200397553
42
0.41421356237311274
10
350.15101317946755
20
-141.80670948786633
0
LWPOLYLINE
5
104
100
AcDbEntity
8
0
100
AcDbPolyline
90
8
70
1
43
0.0
10
196.313982619581
20
-108.28496004408892
10
187.12159441958102
20
-117.47734824408887
42
-0.41421356237313178
10
186.41448763839449
20
-117.47734824408889
10
177.22209943839445
20
-108.2849600440889
42
-0.41421356237302881
10
177.22209943839445
20
-107.57785326290241
10
186.41448758839454
20
-98.385465112902409
42
-0.41421360379446998
10
187.12159441958096
20
-98.385465062902412
10
196.31398261958105
20
-107.57785326290238
42
-0.41421356237310236
0
LWPOLYLINE
5
105
100
AcDbEntity
8
0
100
AcDbPolyline
90
8
70
1
43
0.0
10
250.03792741958094
20
-107.85507394408889
10
240.84553926958094
20
-117.04746209408889
42
-0.41421360379443328
10
240.13843243839437
20
-117.04746214408887
10
230.94604428839438
20
-107.85507399408897
42
-0.41421360379452155
10
230.94604423839431
20
-107.14796716290235
10
240.13843242898764
20
-97.955579053495669
42
-0.41421364521577475
10
240.84553922898766
20
-97.955579053495626
10
250.03792736958087
20
-107.14796711290236
42
-0.41421360379443323
0
LWPOLYLINE
5
106
100
AcDbEntity
8
0
100
AcDbPolyline
90
8
70
1
43
0.0
10
309.86864349461678
20
-132.53520220397559
10
308.05939319461669
20
-119.66171730397562
42
-0.41421356237313622
10
308.48494067850754
20
-119.0969967191248
10
321.35842557850742
20
-117.2877464191248
42
-0.41421356237307444
10
321.92314616335835
20
-117.71329390301557
10
323.73239646335833
20
-130.58677880301556
42
-0.41421356237313772
10
323.30684897946753
20
-131.15149938786635
10
310.43336407946742
20
-132.96074968786633
42
-0.41421356237310536
0
LWPOLYLINE
5
107
100
AcDbEntity
8
0
100
AcDbPolyline
90
8
70
1
43
0.0
10
68.825561994617161
20
-100.98975150301567
10
70.634812294617163
20
-88.116266603015674
42
-0.41421356237308915
10
71.199532879467966
20
-87.690719119124921
10
84.073017779467961
20
-89.499969419124938
42
-0.41421356237310536
10
84.498565263358714
20
-90.064690003975727
10
82.689314963358697
20
-102.93817490397572
42
-0.41421356237309509
10
82.124594378507894
20
-103.36372238786649
10
69.2511094785079
20
-101.55447208786647
42
-0.41421356237308482
0
LWPOLYLINE
5
108
100
AcDbEntity
8
0
100
AcDbPolyline
90
8
70
1
43
0.0
10
203.11510761958101
20
-155.42705754408883
10
193.92271941958103
20
-164.61944574408881
42
-0.41421356237313922
10
193.21561263839448
20
-164.61944574408886
10
184.02322443839449
20
-155.42705754408883
42
-0.41421356237315393
10
184.02322443839452
20
-154.71995076290227
10
193.21561262898769
20
-145.52756265349561
42
-0.41421364521582626
10
193.92271942898776
20
-145.52756265349558
10
203.11510761958095
20
-154.7199507629023
42
-0.41421356237310969
0
LWPOLYLINE
5
109
100
AcDbEntity
8
0
100
AcDbPolyline
90
8
70
1
43
0.0
10
163.61701143839454
20
-121.18294126290235
10
172.80939958839454
20
-111.99055311290235
42
-0.41421360379445532
10
173.51650641958111
20
-111.99055306290236
10
182.70889461958106
20
-121.18294126290235
42
-0.41421356237302881
10
182.70889461958103
20
-121.89004804408887
10
173.51650646958103
20
-131.08243619408887
42
-0.41421360379444794
10
172.8093996383945
20
-131.08243624408888
10
163.61701148839458
20
-121.89004809408888
42
-0.41421360379445532
0
LWPOLYLINE
5
110
100
AcDbEntity
8
0
100
AcDbPolyline
90
8
70
1
43
0.0
10
231.57915233839441
20
-133.91362056290231
42
0.41421356237314649
10
231.57915233839435
20
-134.62072734408883
10
240.77154053839439
20
-143.81311554408882
42
0.41421360379444794
10
241.47864736958101
20
-143.81311549408883
10
250.67103551958093
20
-134.62072734408886
42
0.41421360379444061
10
250.67103546958094
20
-133.91362051290227
10
241.47864731958097
20
-124.7212323629023
42
0.41421356237313178
10
240.77154053839425
20
-124.72123236290231
0
LWPOLYLINE
5
111
100
AcDbEntity
8
0
100
AcDbPolyline
90
8
70
1
43
0.0
10
292.32966059461677
20
-144.61875310397559
10
290.52041029461685
20
-131.7452682039756
42
-0.41421356237304208
10
290.94595777850759
20
-131.18054761912478
10
303.81944267850758
20
-129.37129731912475
42
-0.41421356237305379
10
304.38416326335835
20
-129.79684480301555
10
306.19341356335838
20
-142.67032970301551
42
-0.4142135623731259
10
305.76786607946758
20
-143.23505028786633
10
292.89438117946759
20
-145.04430058786633
42
-0.41421356237313917
0
LWPOLYLINE
5
112
100
AcDbEntity
8
0
100
AcDbPolyline
90
8
70
1
43
0.0
10
224.80880703839438
20
-153.94265316290227
42
0.41421360379439887
10
224.8088071289877
20
-154.64975995349556
10
234.00119523839439
20
-163.84214814408887
42
0.41421356237306561
10
234.70830201958105
20
-163.84214814408887
10
243.90069021958101
20
-154.64975994408883
42
0.41421360379443561
10
243.90069012898772
20
-153.94265315349554
10
234.70830201958103
20
-144.75026496290229
42
0.41421356237309509
10
234.00119523839442
20
-144.75026496290229
0
LWPOLYLINE
5
113
100
AcDbEntity
8
0
100
AcDbPolyline
90
8
70
1
43
0.0
10
286.18236845586779
20
-137.16424394971779
42
0.41421353084521484
10
285.61764787850763
20
-136.7386965191248
10
272.74416297850763
20
-138.54794681912477
42
0.4142135623731259
10
272.31861549461684
20
-139.11266740397562
10
274.12786580210735
20
-151.98615235727331
42
0.41421356237311557
10
274.69258643276544
20
-152.41169978037584
10
287.56607133276532
20
-150.60244948037584
42
0.41421356237317891
10
287.99161875586788
20
-150.03772884971772
0
LWPOLYLINE
5
114
100
AcDbEntity
8
0
100
AcDbPolyline
90
8
70
1
43
0.0
10
160.88940817850784
20
-175.99248388786629
10
148.01592327850781
20
-174.18323358786634
42
-0.41421356237306262
10
147.59037579461707
20
-173.61851300301552
10
149.39962609461705
20
-160.74502810301553
42
-0.41421356237306417
10
149.96434667946784
20
-160.31948061912482
10
162.83783157946783
20
-162.12873091912479
42
-0.41421356237307444
10
163.26337906335857
20
-162.69345150397561
10
161.4541287633586
20
-175.56693640397555
42
-0.41421356237305379
0
LWPOLYLINE
5
115
100
AcDbEntity
8
0
100
AcDbPolyline
90
8
70
1
43
0.0
10
279.95344447946763
20
-175.14173708786629
42
0.41421356237309509
10
280.37899196335843
20
-174.57701650301544
10
278.5697416633584
20
-161.70353160301545
42
0.41421356237320101
10
278.00502107850758
20
-161.27798411912471
10
265.13153617850764
20
-163.08723441912477
42
0.41421356237307444
10
264.70598869461685
20
-163.65195500397556
10
266.51523899461694
20
-176.5254399039755
42
0.41421356237313622
10
267.07995957946764
20
-176.95098738786623
0
LWPOLYLINE
5
116
100
AcDbEntity
8
0
100
AcDbPolyline
90
4
70
1
43
0.0
10
223.06896624612008
20
-56.990317673503668
10
223.06896624612008
20
-89.990317673503668
10
204.06896624612014
20
-89.990317673503668
10
204.06896624612014
20
-56.990317673503668
0
LWPOLYLINE
5
117
100
AcDbEntity
8
0
100
AcDbPolyline
90
8
70
1
43
0.0
10
342.11337666335839
20
-124.49434960301552
10
343.92262696335831
20
-137.3678345030155
42
-0.41421356237314799
10
343.49707947946752
20
-137.93255508786632
10
330.62359463276522
20
-139.74180538037569
42
-0.41421356237314511
10
330.05887400210736
20
-139.31625795727331
10
328.24962372898744
20
-126.44277305349556
42
-0.41421356237306994
10
328.67517112898747
20
-125.87805245349556
10
341.54865602520971
20
-124.06880212661532
42
-0.41421359390091261
0
LWPOLYLINE
5
118
100
AcDbEntity
8
0
100
AcDbPolyline
90
8
70
1
43
0.0
10
65.897037679467985
20
-125.41993251912487
42
0.41421356237308993
10
65.332317094617167
20
-125.84548000301561
10
63.523066794617165
20
-138.71896490301557
42
0.4142135623731002
10
63.948614278507918
20
-139.28368548786639
10
76.822099178507912
20
-141.0929357878664
42
0.41421356237309065
10
77.386819763358716
20
-140.66738830397566
10
79.196070063358718
20
-127.79390340397568
42
0.41421356237310608
10
78.770522579467979
20
-127.22918281912484
0
LWPOLYLINE
5
119
100
AcDbEntity
8
0
100
AcDbPolyline
90
8
70
1
43
0.0
10
141.35546457946791
20
-136.02492281912481
10
154.22894952898781
20
-137.83417315349561
42
-0.41421353084520657
10
154.65449696335861
20
-138.39889370397566
10
152.84524666335861
20
-151.27237860397565
42
-0.41421356237306417
10
152.28052607850782
20
-151.69792608786636
10
139.40704117850782
20
-149.88867578786636
42
-0.41421356237314649
10
138.98149369461709
20
-149.32395520301557
10
140.79074399461703
20
-136.45047030301558
42
-0.41421356237308482
0
LWPOLYLINE
5
120
100
AcDbEntity
8
0
100
AcDbPolyline
90
8
70
1
43
0.0
10
342.90009467850751
20
-90.213743119124828
10
355.77357957850734
20
-88.404492819124826
42
-0.41421356237315687
10
356.33830016335821
20
-88.830040303015565
10
358.14755046335813
20
-101.7035252030156
42
-0.41421353084517948
10
357.72200303276526
20
-102.26824578037586
10
344.84851813276532
20
-104.07749608037592
42
-0.41421359390113344
10
344.28379749461664
20
-103.65194860397563
10
342.47454719461672
20
-90.778463703975646
42
-0.41421356237314799
0
LWPOLYLINE
5
121
100
AcDbEntity
8
0
100
AcDbPolyline
90
8
70
1
43
0.0
10
96.349517778507888
20
-139.02803168786639
42
0.41421353084517509
10
96.914238355868193
20
-138.6024842572734
10
98.723488628987909
20
-125.72899935349562
42
0.41421356237309509
10
98.297941228987909
20
-125.16427875349565
10
85.424456279467975
20
-123.35502841912485
42
0.4142135623731259
10
84.859735694617129
20
-123.78057590301559
10
83.050485394617112
20
-136.65406080301557
42
0.41421353084514267
10
83.47603282521014
20
-137.21878138037593
0
LWPOLYLINE
5
122
100
AcDbEntity
8
0
100
AcDbPolyline
90
8
70
1
43
0.0
10
284.91482367946759
20
-131.73784278786638
10
272.04133877946765
20
-133.54709308786633
42
-0.41421356237308321
10
271.47661819461683
20
-133.12154560397559
10
269.66736792898763
20
-120.24806075349559
42
-0.41421356237307444
10
270.0929153289876
20
-119.68334015349558
10
282.96640022520978
20
-117.87408982661533
42
-0.41421359390114082
10
283.53112086335841
20
-118.29963730301556
10
285.34037116335838
20
-131.17312220301554
42
-0.41421356237313622
0
LWPOLYLINE
5
123
100
AcDbEntity
8
0
100
AcDbPolyline
90
8
70
1
43
0.0
10
66.174314394617184
20
-119.85435820301564
10
67.983564702107657
20
-106.98087324971792
42
-0.41421353084517359
10
68.548285279467962
20
-106.55532581912489
10
81.421770232765709
20
-108.36457612661539
42
-0.41421353084516332
10
81.847317663358723
20
-108.92929670397571
10
80.038067355868222
20
-121.80278165727343
42
-0.4142135308451626
10
79.473346778507917
20
-122.22832908786644
10
66.599861878507909
20
-120.41907878786645
42
-0.41421356237308038
0
LWPOLYLINE
5
124
100
AcDbEntity
8
0
100
AcDbPolyline
90
8
70
1
43
0.0
10
121.56496676335861
20
-100.08333680397571
42
0.41421356237308482
10
121.1394192794679
20
-99.518616219124908
10
108.26593437946786
20
-97.709365919124878
42
0.41421356237304213
10
107.7012137946171
20
-98.134913403015645
10
105.89196349461709
20
-111.00839830301564
42
0.4142135623731259
10
106.31751097850783
20
-111.57311888786644
10
119.19099587850786
20
-113.38236918786646
42
0.41421353084517359
10
119.75571645586814
20
-112.95682175727343
0
LWPOLYLINE
5
125
100
AcDbEntity
8
0
100
AcDbPolyline
90
8
70
1
43
0.0
10
318.00435387946749
20
-93.422285887866423
42
0.41421359390097451
10
318.42990135586774
20
-92.857565249717879
10
316.62065102898748
20
-79.984080353495628
42
0.41421356237305307
10
316.05593042898749
20
-79.558532953495614
10
303.18244557850755
20
-81.367783219124874
42
0.41421356237311557
10
302.75689809461676
20
-81.932503803975692
10
304.56614840210722
20
-94.805988757273411
42
0.41421356237312745
10
305.13086903276536
20
-95.231536180375898
0
LWPOLYLINE
5
126
100
AcDbEntity
8
0
100
AcDbPolyline
90
8
70
1
43
0.0
10
301.73291566335831
20
-110.93223810301555
10
303.54216596335834
20
-123.80572300301552
42
-0.41421356237311557
10
303.11661847946755
20
-124.37044358786633
10
290.24313357946755
20
-126.17969388786636
42
-0.41421356237311557
10
289.67841299461679
20
-125.75414640397561
10
287.8691626946167
20
-112.88066150397562
42
-0.41421356237310536
10
288.2947101785075
20
-112.31594091912483
10
301.16819507850749
20
-110.5066906191248
42
-0.41421356237307444
0
LWPOLYLINE
5
127
100
AcDbEntity
8
0
100
AcDbPolyline
90
8
70
1
43
0.0
10
326.02392367850746
20
-107.0134457191248
42
0.4142135623730524
10
325.59837619461661
20
-107.57816630397564
10
327.40762649461669
20
-120.45165120397562
42
0.41421356237304352
10
327.97234707946745
20
-120.87719868786633
10
340.84583197946745
20
-119.06794838786637
42
0.41421356237314799
10
341.27137946335824
20
-118.50322780301555
10
339.46212915586773
20
-105.62974284971781
42
0.41421356237314949
10
338.8974085252097
20
-105.20419542661531
0
LWPOLYLINE
5
128
100
AcDbEntity
8
0
100
AcDbPolyline
90
8
70
1
43
0.0
10
338.19458443276528
20
-100.2033416803759
10
325.32109953276529
20
-102.01259198037576
42
-0.41421356237321871
10
324.75637890210737
20
-101.58704455727343
10
322.94712862898763
20
-88.713559653495622
42
-0.41421356237308182
10
323.37267602898754
20
-88.148839053495621
10
336.24616092520978
20
-86.339588726615489
42
-0.41421356237321727
10
336.81088155586781
20
-86.765136149717819
10
338.6201318558679
20
-99.638621049717813
42
-0.41421356237322154
0
LWPOLYLINE
5
129
100
AcDbEntity
8
0
100
AcDbPolyline
90
8
70
1
43
0.0
10
346.93504510210715
20
-122.51655535727335
10
345.12579482898752
20
-109.64307045349557
42
-0.41421356237288914
10
345.55134222898744
20
-109.07834985349558
10
358.42482717850743
20
-107.26909951912475
42
-0.4142135623731068
10
358.98954776335813
20
-107.69464700301556
10
360.79879806335833
20
-120.56813190301553
42
-0.41421356237310086
10
360.37325057946754
20
-121.13285248786639
10
347.49976573276524
20
-122.94210278037593
42
-0.41421356237310086
0
LWPOLYLINE
5
130
100
AcDbEntity
8
0
100
AcDbPolyline
90
8
70
1
43
0.0
10
267.44166787850759
20
-100.81873341912484
42
0.41421359390097451
10
267.01612040210728
20
-101.38345405727338
10
268.82537070210731
20
-114.25693895727338
42
0.41421353084523688
10
269.39009127946758
20
-114.6824863878664
10
282.26357617946758
20
-112.87323608786637
42
0.41421359390101714
10
282.68912365586789
20
-112.30851544971785
10
280.8798733633584
20
-99.435030603015591
42
0.41421356237305379
10
280.31515277850758
20
-99.009483119124837
0
LWPOLYLINE
5
131
100
AcDbEntity
8
0
100
AcDbPolyline
90
8
70
1
43
0.0
10
105.61468677946792
20
-116.57397261912486
10
118.48817172898788
20
-118.38322295349562
42
-0.41421356237309509
10
118.91371912898788
20
-118.94794355349566
10
117.10446885586816
20
-131.82142845727341
42
-0.41421353084513246
10
116.53974827850787
20
-132.24697588786643
10
103.66626338108182
20
-130.43772556997624
42
-0.4142135939607447
10
103.24071592772169
20
-129.87300496244248
10
105.0499661946171
20
-116.9995201030156
42
-0.4142135623730524
0
LWPOLYLINE
5
132
100
AcDbEntity
8
0
100
AcDbPolyline
90
8
70
1
43
0.0
10
154.93177367850777
20
-132.83331938786637
10
142.05828872521005
20
-131.02406908037591
42
-0.4142135308451545
10
141.63274129461703
20
-130.45934850301558
10
143.44199159461704
20
-117.58586360301561
42
-0.4142135623730524
10
144.00671217946783
20
-117.16031611912484
10
156.88019707946785
20
-118.96956641912485
42
-0.41421356237309509
10
157.30574456335856
20
-119.53428700397568
10
155.49649426335858
20
-132.40777190397563
42
-0.41421356237309509
0
LWPOLYLINE
5
133
100
AcDbEntity
8
0
100
AcDbPolyline
90
8
70
1
43
0.0
10
126.08219399461706
20
-104.22734250301562
42
0.41421353084517509
10
126.50774142521007
20
-104.79206308037595
10
139.38122637850785
20
-106.60131338786644
42
0.41421356237310536
10
139.94594696335864
20
-106.17576590397569
10
141.75519726335861
20
-93.302281003975736
42
0.414213530845228
10
141.3296498327656
20
-92.737560426615403
10
128.45616487946788
20
-90.928310119124916
42
0.41421356237309509
10
127.89144429461703
20
-91.353857603015626
0
LWPOLYLINE
5
134
100
AcDbEntity
8
0
100
AcDbPolyline
90
8
70
1
43
0.0
10
157.58302117850778
20
-113.96871268786643
10
144.70953622521
20
-112.15946238037594
42
-0.41421353084518542
10
144.28398879461702
20
-111.59474180301564
10
146.09323912898782
20
-98.72125685349566
42
-0.41421356237307444
10
146.65795972898781
20
-98.295709453495675
10
159.53144463276556
20
-100.10495972661539
42
-0.414213530845228
10
159.9569920633586
20
-100.66968030397572
10
158.14774175586811
20
-113.54316525727342
42
-0.41421353084516332
0
LWPOLYLINE
5
135
100
AcDbEntity
8
0
100
AcDbPolyline
90
8
70
1
43
0.0
10
305.83369317850747
20
-100.23239001912484
10
318.70717807850747
20
-98.423139719124805
42
-0.41421356237305379
10
319.27189866335834
20
-98.848687203015572
10
321.08114896335837
20
-111.72217210301557
42
-0.41421356237311419
10
320.65560147946746
20
-112.28689268786637
10
307.78211657946758
20
-114.09614298786634
42
-0.41421356237313478
10
307.21739599461677
20
-113.67059550397563
10
305.40814570210728
20
-100.79711065727341
42
-0.4142135939010686
0
LWPOLYLINE
5
136
100
AcDbEntity
8
0
100
AcDbPolyline
90
8
70
1
43
0.0
10
134.07873127850786
20
-144.33052688786637
42
0.41421356237309509
10
134.64345186335865
20
-143.90497940397563
10
136.45270216335862
20
-131.03149450397564
42
0.41421353084514417
10
136.02715473276564
20
-130.46677392661533
10
123.15366977946789
20
-128.65752361912487
42
0.41421356237314799
10
122.58894919461707
20
-129.08307110301561
10
120.7796988946171
20
-141.95655600301558
42
0.41421356237311557
10
121.20524637850784
20
-142.5212765878664
0
LWPOLYLINE
5
137
100
AcDbEntity
8
0
100
AcDbPolyline
90
8
70
1
43
0.0
10
108.54321109461708
20
-92.143791603015671
10
110.35246142898788
20
-79.270306653495709
42
-0.41421356237308482
10
110.91718202898788
20
-78.84475925349571
10
123.79066693276563
20
-80.654009526615411
42
-0.414213530845153
10
124.21621436335863
20
-81.21873010397573
10
122.4069640633586
20
-94.09221500397571
42
-0.41421356237311557
10
121.84224347850784
20
-94.517762487866463
10
108.96875852521009
20
-92.70851218037599
42
-0.41421353084516332
0
LWPOLYLINE
5
138
100
AcDbEntity
8
0
100
AcDbPolyline
90
8
70
1
43
0.0
10
99.000765378507865
20
-120.16342498786642
42
0.41421353084518542
10
99.565485955868184
20
-119.73787755727341
10
101.37473626335868
20
-106.8643926039757
42
0.41421356237308321
10
100.94918877946796
20
-106.2996720191249
10
88.075703879467952
20
-104.4904217191249
42
0.41421353084514267
10
87.510983302107633
20
-104.91596914971791
10
85.701732994617132
20
-117.78945410301561
42
0.41421353084518542
10
86.127280425210145
20
-118.35417468037593
0
LWPOLYLINE
5
139
100
AcDbEntity
8
0
100
AcDbPolyline
90
8
70
1
43
0.0
10
285.64346267850766
20
-93.45133421912486
42
0.41421356237311557
10
285.21791519461681
20
-94.016054803975663
10
287.02716549461672
20
-106.88953970397563
42
0.41421356237318041
10
287.5918860794676
20
-107.3150871878664
10
300.46537097946748
20
-105.50583688786639
42
0.41421359390101564
10
300.89091845586785
20
-104.94111624971781
10
299.08166815586782
20
-92.067631349717857
42
0.41421353084515589
10
298.51694757850748
20
-91.642083919124843
0
LWPOLYLINE
5
140
100
AcDbEntity
8
0
100
AcDbPolyline
90
8
70
1
43
0.0
10
139.10394966335863
20
-112.16688770397568
10
137.29469936335863
20
-125.04037260397567
42
-0.41421356237307444
10
136.72997877850779
20
-125.46592008786641
10
123.85649382521007
20
-123.65666978037589
42
-0.41421353084518686
10
123.4309463946171
20
-123.09194920301559
10
125.24019672898787
20
-110.21846425349565
42
-0.41421356237312745
10
125.80491732898787
20
-109.79291685349567
10
138.67840223276562
20
-111.60216712661538
42
-0.41421353084514267
0
LWPOLYLINE
5
141
100
AcDbEntity
8
0
100
AcDbPolyline
90
8
70
1
43
0.0
10
90.7269514794679
20
-85.625815019124914
42
0.41421356237311557
10
90.162230894617096
20
-86.051362503015682
10
88.352980594617122
20
-98.924847403015661
42
0.41421353084516332
10
88.778528025210122
20
-99.489567980375938
10
101.65201297850788
20
-101.29881828786645
42
0.41421353084522655
10
102.21673355586817
20
-100.87327085727337
10
104.02598386335866
20
-87.999785903975734
42
0.41421356237308482
10
103.60043637946789
20
-87.435065319124902
0
CIRCLE
5
142
100
AcDbEntity
8
0
100
AcDbCircle
10
189.07830298613931
20
-121.33429753550533
30
0
40
1.2499999999999778
210
0
220
0
230
1
0
CIRCLE
5
143
100
AcDbEntity
8
0
100
AcDbCircle
10
238.35308419667672
20
-121.36435300517542
30
0
40
1.2499999999999778
210
0
220
0
230
1
0
CIRCLE
5
144
100
AcDbEntity
8
0
100
AcDbCircle
10
213.75035769373707
20
-96.607610121353105
30
0
40
1.2499999999999778
210
0
220
0
230
1
0
CIRCLE
5
145
100
AcDbEntity
8
0
100
AcDbCircle
10
213.74992106118032
20
-146.09916493072777
30
0
40
1.2499999999999778
210
0
220
0
230
1
0
ENDSEC
0
SECTION
2
OBJECTS
0
DICTIONARY
5
C
100
AcDbDictionary
3
ACAD_GROUP
350
D
3
ACAD_MLINESTYLE
350
17
0
DICTIONARY
5
D
100
AcDbDictionary
0
DICTIONARY
5
1A
330
C
100
AcDbDictionary
0
DICTIONARY
5
17
100
AcDbDictionary
0
ENDSEC
0
EOF
