0
SECTION
2
HEADER
9
$INSUNITS
70
4
9
$ACADVER
1
AC1014
9
$HANDSEED
5
FFFF
0
ENDSEC
0
SECTION
2
TABLES
0
TABLE
2
VPORT
5
8
100
AcDbSymbolTable
0
ENDTAB
0
TABLE
2
LTYPE
5
5
100
AcDbSymbolTable
0
LTYPE
5
14
100
AcDbSymbolTableRecord
100
AcDbLinetypeTableRecord
2
BYBLOCK
70
0
0
LTYPE
5
15
100
AcDbSymbolTableRecord
100
AcDbLinetypeTableRecord
2
BYLAYER
70
0
0
ENDTAB
0
TABLE
2
LAYER
5
2
100
AcDbSymbolTable
70
2
0
LAYER
5
50
100
AcDbSymbolTableRecord
100
AcDbLayerTableRecord
2
0
70
0
6
CONTINUOUS
0
ENDTAB
0
TABLE
2
STYLE
5
3
100
AcDbSymbolTable
70
1
0
STYLE
5
11
100
AcDbSymbolTableRecord
100
AcDbTextStyleTableRecord
2
STANDARD
70
0
0
ENDTAB
0
TABLE
2
VIEW
5
6
100
AcDbSymbolTable
70
0
0
ENDTAB
0
TABLE
2
UCS
5
7
100
AcDbSymbolTable
70
0
0
ENDTAB
0
TABLE
2
APPID
5
9
100
AcDbSymbolTable
70
2
0
APPID
5
12
100
AcDbSymbolTableRecord
100
AcDbRegAppTableRecord
2
ACAD
70
0
0
ENDTAB
0
TABLE
2
DIMSTYLE
5
A
100
AcDbSymbolTable
70
1
0
ENDTAB
0
TABLE
2
BLOCK_RECORD
5
1
100
AcDbSymbolTable
70
1
0
BLOCK_RECORD
5
1F
100
AcDbSymbolTableRecord
100
AcDbBlockTableRecord
2
*MODEL_SPACE
0
BLOCK_RECORD
5
1B
100
AcDbSymbolTableRecord
100
AcDbBlockTableRecord
2
*PAPER_SPACE
0
ENDTAB
0
ENDSEC
0
SECTION
2
BLOCKS
0
BLOCK
5
20
100
AcDbEntity
100
AcDbBlockBegin
2
*MODEL_SPACE
0
ENDBLK
5
21
100
AcDbEntity
100
AcDbBlockEnd
0
BLOCK
5
1C
100
AcDbEntity
100
AcDbBlockBegin
2
*PAPER_SPACE
0
ENDBLK
5
1D
100
AcDbEntity
100
AcDbBlockEnd
0
ENDSEC
0
SECTION
2
ENTITIES
0
LWPOLYLINE
5
100
100
AcDbEntity
8
0
100
AcDbPolyline
90
90
70
1
43
0.0
10
-143.64042149571918
20
114.5301609096137
10
-157.61655980750817
20
116.49437903934823
42
0.41431048323918535
10
-163.2639956405508
20
112.23726577198475
10
-164.24227484176345
20
105.2596954199946
10
-257.30605235542765
20
105.2596954199946
10
-257.33316890107386
20
105.2600720038653
10
-258.46872711359867
20
113.33998858699934
42
0.41999299829832187
10
-264.21329270601996
20
117.58080149543747
10
-271.10219341428495
20
116.47389326262208
10
-277.991676253984
20
115.50563960082066
42
0.41421356237310036
10
-282.24715109864491
20
109.858433756648
10
-279.74240024539273
20
92.036205241552906
10
-285.94243943524469
20
91.164846565064977
42
0.41421356237308754
10
-290.19791427990566
20
85.51764072089226
10
-290.19660623027892
20
85.508333464113747
10
-296.91664242282229
20
84.563893975365048
10
-303.90131626239162
20
83.582208647862302
42
0.41421136471272235
10
-308.15675395574112
20
77.935008025108047
10
-307.52745903636946
20
73.457341976260622
10
-314.45559791428485
20
72.483655562622161
10
-321.38586787916165
20
71.498013467316284
10
-322.01723258146762
20
75.990406787095154
42
0.41421356237310392
10
-327.6644384256403
20
80.245881631756006
10
-341.59825157883142
20
78.28761191509561
10
-341.56751336847577
20
78.068898182194189
42
0.41421356237311285
10
-347.21471921264833
20
82.324373026855113
10
-361.15695222569127
20
80.364919976071789
42
0.41421356237309198
10
-365.41242707035224
20
74.717714131899115
10
-364.42894130739234
20
67.719849260007706
10
-359.12644620739229
20
29.990635860007817
10
-358.14748778486313
20
23.024984689378094
42
0.41158664822600249
10
-352.5447583994777
20
18.763462538636396
10
-345.98578581973817
20
19.625296060577888
10
-338.5765118649789
20
20.650153775999112
10
-338.61785731557745
20
20.944341945521767
42
0.4142135623730982
10
-332.97065147140478
20
16.688867100860854
10
-325.98926150477791
20
17.670037466900279
10
-319.05403177024147
20
18.620388967078814
10
-318.42762682381345
20
14.163286144364253
42
0.41421356237308782
10
-312.78042097964067
20
9.9078112997033152
10
-305.79903100477799
20
10.888981666900293
10
-298.85537200350871
20
11.926874625362807
42
0.41165345837970152
10
-294.6431875026048
20
17.567803182249552
10
-295.26442417370134
20
21.988131814881395
10
-288.26004810477804
20
22.972532666900278
10
-281.49050613380626
20
23.918250651639674
42
0.41445456471373598
10
-277.23095727274131
20
29.56602735249378
10
-277.22896593544283
20
29.551858251268293
10
-270.25374221115931
20
30.532162008468262
10
-240.17083470134651
20
0.95073114144533122
42
0.40570798955824466
10
-180.94954751588389
20
0.58600081997903342
10
-150.64860866623565
20
29.656460397898954
10
-143.70217009385766
20
28.675546952523234
10
-143.69999584427018
20
28.700008368354961
42
0.38902249525375687
10
-139.59223379821344
20
23.334061683975882
10
-139.12992083868357
20
23.2521210559986
10
-125.5549217665467
20
21.2247819681604
10
-126.17628108276519
20
16.803579539917184
42
0.41421356237310364
10
-121.92080603914521
20
11.156373845670863
10
-114.93941640314841
20
10.175203776920778
10
-107.95171956435182
20
9.1931475694121723
42
0.41421356237309814
10
-102.30451403765251
20
13.44862283537439
10
-101.67475920207477
20
17.929563783701781
10
-94.749188812683258
20
16.956238874458691
10
-87.973895289567736
20
16.00403508342124
42
0.41421299138236067
10
-82.326691793009616
20
20.25950159065885
10
-82.332383952960143
20
20.219000272256924
10
-75.194767709555563
20
19.215861240584893
10
-68.239390376413326
20
18.223654305137593
42
0.41421356237309426
10
-62.583384154459331
20
22.46742546025876
10
-61.612040310353734
20
29.276552381885708
10
-55.336783952569952
20
73.927330691212006
42
0.41170063434221188
10
-59.549766540085763
20
79.568378336324088
10
-66.565199619297488
20
80.615842165045208
10
-73.54658932095947
20
81.597012528531167
42
0.41421356237309509
10
-79.193795185864658
20
77.341537711383211
10
-79.171941897672312
20
77.497031932174195
10
-92.183809322688148
20
79.292202309641141
10
-93.127735536154276
20
79.407072985148716
42
0.40879740749463872
10
-98.683092455319297
20
75.139556172667341
10
-99.294697358189609
20
70.787761132552092
10
-113.26838185207345
20
72.751634400672742
10
-112.64879695284512
20
77.160210065678399
42
0.41116786977116176
10
-116.8527678155661
20
82.799903925908552
10
-123.82183180477831
20
83.853432762622191
10
-130.7388466386009
20
84.825555793830162
10
-130.77878536088878
20
84.541377016411559
42
0.4122761327700119
10
-135.00150115118822
20
90.183868260969376
10
-141.87073004407753
20
91.195687043595299
10
-139.38494665105821
20
108.88295506544102
42
0.41421356237309931
0
LWPOLYLINE
5
101
100
AcDbEntity
8
0
100
AcDbPolyline
90
8
70
1
43
0.0
10
-264.32433505905146
20
36.245410730390468
10
-277.19781995905146
20
34.436160430390466
42
-0.41421356237309243
10
-277.76254054390228
20
34.861707914281219
10
-279.57179083641176
20
47.735192760983445
42
-0.41421359390102819
10
-279.14624336001151
20
48.299913399132009
10
-266.27275846001146
20
50.109163699132026
42
-0.41421353084516993
10
-265.70803788265118
20
49.683616268538998
10
-263.89878758265121
20
36.810131368539018
42
-0.41421359390101731
0
LWPOLYLINE
5
102
100
AcDbEntity
8
0
100
AcDbPolyline
90
8
70
1
43
0.0
10
-339.78276185905139
20
25.640420430390449
10
-352.65624675905133
20
23.831170130390422
42
-0.41421356237308993
10
-353.22096734390215
20
24.256717614281207
10
-355.03021764390212
20
37.130202514281201
42
-0.41421353084508827
10
-354.60467021330919
20
37.694923091641485
10
-341.73118531330914
20
39.504173391641523
42
-0.41421359390103474
10
-341.16646467516057
20
39.078625915241254
10
-339.35721437516059
20
26.205141015241264
42
-0.41421356237309342
0
LWPOLYLINE
5
103
100
AcDbEntity
8
0
100
AcDbPolyline
90
8
70
1
43
0.0
10
-302.71636035905141
20
35.659067330390457
10
-315.5898452590514
20
33.849817030390447
42
-0.41421356237309281
10
-316.15456584390222
20
34.275364514281208
10
-317.96381614390219
20
47.148849414281187
42
-0.41421356237309509
10
-317.5382686600114
20
47.713569999132005
10
-304.66478376001146
20
49.522820299132
42
-0.41421356237308993
10
-304.10006317516064
20
49.097272815241254
10
-302.2908128826511
20
36.223787968539028
42
-0.41421359390105161
0
LWPOLYLINE
5
104
100
AcDbEntity
8
0
100
AcDbPolyline
90
8
70
1
43
0.0
10
-298.61558284390219
20
46.358915414281192
10
-300.42483314390222
20
59.232400314281151
42
-0.4142135623731002
10
-299.99928566001142
20
59.797120899131968
10
-287.12580076001143
20
61.606371199131985
42
-0.41421356237308993
10
-286.56108017516067
20
61.180823715241239
10
-284.75182987516058
20
48.307338815241252
42
-0.4142135623731002
10
-285.17737735905138
20
47.742618230390434
10
-298.05086225905137
20
45.933367930390439
42
-0.41421356237308993
0
LWPOLYLINE
5
105
100
AcDbEntity
8
0
100
AcDbPolyline
90
8
70
1
43
0.0
10
-266.97558250953148
20
55.110017464761221
10
-279.84906740575366
20
53.300767137880946
42
-0.41421359390105245
10
-280.41378804390229
20
53.726314614281179
10
-282.22303834390226
20
66.599799514281159
42
-0.4142135623731002
10
-281.79749086001152
20
67.164520099131991
10
-268.92400596001153
20
68.973770399131965
42
-0.41421356237308993
10
-268.35928537516071
20
68.548222915241212
10
-266.55003510953151
20
55.674738064761222
42
-0.41421356237310319
0
LWPOLYLINE
5
106
100
AcDbEntity
8
0
100
AcDbPolyline
90
8
70
1
43
0.0
10
-342.43400940953131
20
44.505027164761216
10
-355.3074943590513
20
42.695776830390386
42
-0.41421356237308993
10
-355.87221494390212
20
43.121324314281175
10
-357.68146524390215
20
55.994809214281162
42
-0.41421356237309731
10
-357.25591776001136
20
56.559529799131965
10
-344.38243291330906
20
58.368780091641483
42
-0.41421356237307
10
-343.81771228265109
20
57.943232668538968
10
-342.0084620095314
20
45.06974776476121
42
-0.41421356237304202
0
LWPOLYLINE
5
107
100
AcDbEntity
8
0
100
AcDbPolyline
90
8
70
1
43
0.0
10
-322.90659085905133
20
42.440123030390431
10
-335.78007570575357
20
40.630872737880935
42
-0.41421356237311197
10
-336.3447963364116
20
41.056420160983443
10
-338.15404664390212
20
53.929905114281183
42
-0.41421356237309209
10
-337.72849916001132
20
54.494625699131987
10
-324.85501426001133
20
56.303875999131947
42
-0.41421356237308993
10
-324.29029367516057
20
55.878328515241229
10
-322.48104337516054
20
43.004843615241242
42
-0.41421356237309731
0
LWPOLYLINE
5
108
100
AcDbEntity
8
0
100
AcDbPolyline
90
8
70
1
43
0.0
10
-100.90865104390254
20
23.426463215241355
10
-99.099400736412065
20
36.29994816853899
42
-0.41421353084522111
10
-98.53468015905176
20
36.725495599132088
10
-85.661195205754012
20
34.916245291641573
42
-0.4142135308451666
10
-85.235647775161013
20
34.351524714281275
10
-87.044898075161001
20
21.478039814281296
42
-0.4142135623730902
10
-87.609618660011819
20
21.05249233039055
10
-100.48310356001178
20
22.861742630390541
42
-0.41421356237309725
0
LWPOLYLINE
5
109
100
AcDbEntity
8
0
100
AcDbPolyline
90
8
70
1
43
0.0
10
-125.33883206001175
20
26.354987430390526
10
-138.21231701330947
20
28.164237737881027
42
-0.41421353084517804
10
-138.63786444390252
20
28.728958315241336
10
-136.82861414390254
20
41.602443215241323
42
-0.41421356237308993
10
-136.26389355905172
20
42.027990699132076
10
-123.39040860575396
20
40.21874039164156
42
-0.41421353084516332
10
-122.96486117516096
20
39.654019814281263
10
-124.77411147516094
20
26.780534914281269
42
-0.41421356237308482
0
LWPOLYLINE
5
110
100
AcDbEntity
8
0
100
AcDbPolyline
90
8
70
1
43
0.0
10
-107.79984920953176
20
14.271436564761331
10
-120.67333411330952
20
16.080686837881061
42
-0.4142135308451565
10
-121.09888154390251
20
16.645407415241362
10
-119.28963124390253
20
29.518892315241345
42
-0.4142135623731002
10
-118.72491065905172
20
29.944439799132098
10
-105.851425705754
20
28.135189491641594
42
-0.41421353084517876
10
-105.42587827516098
20
27.570468914281285
10
-107.23512860953176
20
14.69698396476133
42
-0.41421356237309209
0
LWPOLYLINE
5
111
100
AcDbEntity
8
0
100
AcDbPolyline
90
8
70
1
43
0.0
10
-143.54062690953168
20
33.722386764761296
10
-156.41411181330943
20
35.531637037881019
42
-0.41421353084517948
10
-156.83965924390247
20
36.096357615241324
10
-155.03040893641199
20
48.969842568539043
42
-0.41421353084517065
10
-154.46568835905168
20
49.39538999913205
10
-141.59220340575393
20
47.586139691641556
42
-0.41421353084517876
10
-141.16665597516092
20
47.021419114281244
10
-142.97590630953169
20
34.147934164761296
42
-0.41421356237308915
0
LWPOLYLINE
5
112
100
AcDbEntity
8
0
100
AcDbPolyline
90
8
70
1
43
0.0
10
-313.50331820953141
20
15.410757664761263
10
-315.31256853641162
20
28.284242560983483
42
-0.41421359390101464
10
-314.88702106001136
20
28.848963199132033
10
-302.01353621330924
20
30.658213491641529
42
-0.41421356237308654
10
-301.44881558265115
20
30.232666068539032
10
-299.63956527516063
20
17.359181115241302
42
-0.4142135623730977
10
-300.06511275905143
20
16.794460530390488
10
-312.93859760953137
20
14.985210264761248
42
-0.41421356237308321
0
LWPOLYLINE
5
113
100
AcDbEntity
8
0
100
AcDbPolyline
90
8
70
1
43
0.0
10
-282.52612985905148
20
28.878011530390477
10
-295.39961475905136
20
27.068761230390464
42
-0.41421353084516993
10
-295.96433533641169
20
27.494308660983478
10
-297.77358563641167
20
40.367793560983444
42
-0.41421359390102525
10
-297.34803816001141
20
40.932514199132015
10
-284.47455326001148
20
42.741764499132017
42
-0.41421356237308993
10
-283.90983267516066
20
42.316217015241264
10
-282.10058237516068
20
29.442732115241288
42
-0.41421356237309942
0
LWPOLYLINE
5
114
100
AcDbEntity
8
0
100
AcDbPolyline
90
8
70
1
43
0.0
10
-320.25534320953142
20
23.57551636476126
10
-333.1288281057536
20
21.766266037881053
42
-0.41421356237314144
10
-333.69354873641163
20
22.191813460983472
10
-335.50279903641172
20
35.065298360983441
42
-0.4142135623731516
10
-335.0772516133091
20
35.630018991641506
10
-322.20376671330916
20
37.43926929164143
42
-0.41421356237313961
10
-321.63904608265113
20
37.013721868539015
10
-319.82979580953145
20
24.140236964761243
42
-0.4142135623730745
0
LWPOLYLINE
5
115
100
AcDbEntity
8
0
100
AcDbPolyline
90
8
70
1
43
0.0
10
-105.1486015600118
20
33.136043230390513
10
-118.02208646001178
20
34.945293530390515
42
-0.4142135623731002
10
-118.44763394390253
20
35.510014115241333
10
-116.63838363641203
20
48.383499068539059
42
-0.41421353084517948
10
-116.07366305905171
20
48.809046499132066
10
-103.20017815905173
20
46.999796199132071
42
-0.4142135623731002
10
-102.77463067516098
20
46.435075614281246
10
-104.58388097516099
20
33.561590714281273
42
-0.41421356237308915
0
LWPOLYLINE
5
116
100
AcDbEntity
8
0
100
AcDbPolyline
90
8
70
1
43
0.0
10
-65.430952460011866
20
41.982003130390524
10
-78.3044374133096
20
43.791253437881025
42
-0.41421353084516921
10
-78.729984843902599
20
44.355974015241337
10
-76.920734536412112
20
57.229458968539049
42
-0.41421353084516921
10
-76.356013959051808
20
57.655006399132063
10
-63.482529059051807
20
55.845756099132075
42
-0.41421356237308993
10
-63.056981575161061
20
55.28103551428125
10
-64.866231882651576
20
42.407550560983516
42
-0.41421353084516477
0
LWPOLYLINE
5
117
100
AcDbEntity
8
0
100
AcDbPolyline
90
8
70
1
43
0.0
10
-84.958371060011842
20
39.917099030390517
10
-97.831855960011836
20
41.726349330390505
42
-0.4142135623731002
10
-98.257403443902575
20
42.29106991524133
10
-96.44815313641206
20
55.164554868539042
42
-0.41421353084516921
10
-95.883432559051755
20
55.590102299132056
10
-83.009947605754036
20
53.780851991641555
42
-0.41421353084516921
10
-82.584400175161022
20
53.216131414281243
10
-84.393650482651523
20
40.342646460983516
42
-0.41421353084517437
0
LWPOLYLINE
5
118
100
AcDbEntity
8
0
100
AcDbPolyline
90
8
70
1
43
0.0
10
-122.68758450953175
20
45.219594164761283
10
-135.56106941330953
20
47.028844437881006
42
-0.41421353084515888
10
-135.98661684390251
20
47.59356501524131
10
-134.17736654390251
20
60.467049915241276
42
-0.41421356237308993
10
-133.61264595905169
20
60.892597399132029
10
-120.73916100575396
20
59.083347091641528
42
-0.41421353084515822
10
-120.31361357516097
20
58.518626514281223
10
-122.12286390953173
20
45.645141564761282
42
-0.41421356237310969
0
LWPOLYLINE
5
119
100
AcDbEntity
8
0
100
AcDbPolyline
90
8
70
1
43
0.0
10
-115.79638630953177
20
54.374620864761269
10
-113.98713603641205
20
67.24810576853902
42
-0.41421353084517804
10
-113.42241545905173
20
67.673653199132033
10
-100.5489305616257
20
65.864402881241872
42
-0.41421359396076085
10
-100.12338310826559
20
65.299682273708086
10
-101.932633375161
20
52.426197414281233
42
-0.41421356237308993
10
-102.49735396001182
20
52.000649930390487
10
-115.37083890953176
20
53.809900264761239
42
-0.41421356237309209
0
LWPOLYLINE
5
120
100
AcDbEntity
8
0
100
AcDbPolyline
90
8
70
1
43
0.0
10
-95.606155809531799
20
61.155676664761252
10
-93.796905536412083
20
74.029161568539024
42
-0.41421353084516405
10
-93.232184959051779
20
74.454708999132023
10
-80.358700005754031
20
72.645458691641537
42
-0.41421353084516843
10
-79.933152575161031
20
72.080738114281203
10
-81.742402875161019
20
59.207253214281224
42
-0.4142135623731002
10
-82.307123460011852
20
58.78170573039047
10
-95.1806084095318
20
60.590956064761272
42
-0.41421356237310164
0
LWPOLYLINE
5
121
100
AcDbEntity
8
0
100
AcDbPolyline
90
8
70
1
43
0.0
10
-120.03633696001179
20
64.084200930390466
10
-132.90982191330951
20
65.893451237880953
42
-0.41421353084515822
10
-133.3353693439025
20
66.458171815241258
10
-131.52611904390253
20
79.331656715241238
42
-0.41421356237308993
10
-130.96139845905171
20
79.757204199131991
10
-118.08791355905173
20
77.947953899132017
42
-0.4142135623731002
10
-117.66236607516099
20
77.383233314281185
10
-119.47161637516096
20
64.509748414281219
42
-0.4142135623731002
0
LWPOLYLINE
5
122
100
AcDbEntity
8
0
100
AcDbPolyline
90
8
70
1
43
0.0
10
-140.88937936001173
20
52.586993430390478
10
-153.76286426001175
20
54.396243730390466
42
-0.4142135623731002
10
-154.18841174390249
20
54.960964315241291
10
-152.37916144390249
20
67.83444921524125
42
-0.41421356237308993
10
-151.81444085905167
20
68.259996699132003
10
-138.94095590575392
20
66.450746391641516
42
-0.41421353084515822
10
-138.51540847516094
20
65.886025814281211
10
-140.32465877516091
20
53.012540914281232
42
-0.41421356237308993
0
LWPOLYLINE
5
123
100
AcDbEntity
8
0
100
AcDbPolyline
90
8
70
1
43
0.0
10
-138.23813176001175
20
71.451600130390446
42
0.41421356237308993
10
-137.67341117516094
20
71.877147614281199
10
-135.86416087516096
20
84.750632514281179
42
0.41421356237309509
10
-136.2897083590517
20
85.315353099131983
10
-149.1631932590517
20
87.124603399131999
42
0.41421356237307444
10
-149.72791384390248
20
86.699055915241246
10
-151.53716414390249
20
73.825571015241252
42
0.41421353084517876
10
-151.11161670953169
20
73.260850464761219
0
LWPOLYLINE
5
124
100
AcDbEntity
8
0
100
AcDbPolyline
90
8
70
1
43
0.0
10
-62.779704860011876
20
60.846609830390491
10
-75.653189760011855
20
62.655860130390479
42
-0.41421356237309509
10
-76.078737243902609
20
63.220580715241297
10
-74.269486943902621
20
76.094065615241277
42
-0.41421356237308993
10
-73.704766359051803
20
76.51961309913203
10
-60.831281459051816
20
74.710362799132042
42
-0.41421356237308993
10
-60.40573397516107
20
74.14564221428121
10
-62.214984275161065
20
61.272157314281237
42
-0.41421356237308993
0
LWPOLYLINE
5
125
100
AcDbEntity
8
0
100
AcDbPolyline
90
8
70
1
43
0.0
10
-237.72820640953154
20
33.382256364761261
10
-246.92059455012475
20
42.574644424167978
42
-0.4142136037944269
10
-246.92059460012476
20
43.281751255354514
10
-237.72820645012479
20
52.474139405354514
42
-0.41421360379446737
10
-237.02109961893825
20
52.474139455354504
10
-227.82871146893828
20
43.281751305354561
42
-0.41421360379447109
10
-227.82871141893821
20
42.574644474167975
10
-237.02109960953155
20
33.382256364761282
42
-0.41421364521582626
0
LWPOLYLINE
5
126
100
AcDbEntity
8
0
100
AcDbPolyline
90
8
70
1
43
0.0
10
-170.39917360012495
20
47.417230374167985
10
-179.59156180012496
20
56.609618574167975
42
-0.41421356237307294
10
-179.59156180012491
20
57.316725355354514
10
-170.39917365012491
20
66.509113505354492
42
-0.41421360379444166
10
-169.6920668189384
20
66.509113555354503
10
-160.49967866893843
20
57.316725405354525
42
-0.41421360379447109
10
-160.49967861893839
20
56.609618574167975
10
-169.69206676893839
20
47.417230424167983
42
-0.41421360379446009
0
LWPOLYLINE
5
127
100
AcDbEntity
8
0
100
AcDbPolyline
90
8
70
1
43
0.0
10
-190.80538660953164
20
80.954239964761214
10
-199.99777480012494
20
90.146628074167907
42
-0.41421356237307294
10
-199.99777480012489
20
90.853734855354446
10
-190.80538660012493
20
100.04612305535443
42
-0.41421356237309509
10
-190.09827981893838
20
100.04612305535446
10
-180.90589161893834
20
90.853734855354446
42
-0.41421356237307294
10
-180.90589161893837
20
90.146628074167907
10
-190.09827980953162
20
80.954239964761229
42
-0.41421364521584103
0
LWPOLYLINE
5
128
100
AcDbEntity
8
0
100
AcDbPolyline
90
8
70
1
43
0.0
10
-184.09999270953165
20
60.680971564761236
10
-193.29238085012489
20
69.873359624167918
42
-0.41421360379445643
10
-193.29238090012493
20
70.580466455354482
10
-184.0999927501249
20
79.772854605354439
42
-0.41421360379445638
10
-183.39288591893836
20
79.772854655354465
10
-174.20049771893838
20
70.580466455354468
42
-0.41421356237305829
10
-174.20049771893841
20
69.873359674167943
10
-183.39288595953161
20
60.680971514761225
42
-0.41421360379447109
0
LWPOLYLINE
5
129
100
AcDbEntity
8
0
100
AcDbPolyline
90
8
70
1
43
0.0
10
-251.40953920953149
20
46.56114186476124
10
-260.60192735012481
20
55.753529924167928
42
-0.41421360379445643
10
-260.60192740012485
20
56.4606367553545
10
-251.40953925012479
20
65.653024905354485
42
-0.4142136037944637
10
-250.70243241893823
20
65.653024955354482
10
-241.51004426893826
20
56.460636805354497
42
-0.41421360379444166
10
-241.51004421893822
20
55.753529974167947
10
-250.7024324095315
20
46.56114186476124
42
-0.41421364521580417
0
LWPOLYLINE
5
130
100
AcDbEntity
8
0
100
AcDbPolyline
90
8
70
1
43
0.0
10
-238.36131450012482
20
60.147909674167941
10
-247.55370265012476
20
69.340297824167905
42
-0.41421360379444527
10
-247.5537027001248
20
70.04740465535447
10
-238.36131455012486
20
79.239792805354455
42
-0.41421360379447847
10
-237.65420771893827
20
79.239792855354466
10
-228.46181951893826
20
70.047404655354455
42
-0.41421356237305829
10
-228.46181951893828
20
69.340297874167931
10
-237.65420771893818
20
60.147909674167941
42
-0.41421356237310969
0
LWPOLYLINE
5
131
100
AcDbEntity
8
0
100
AcDbPolyline
90
8
70
1
43
0.0
10
-231.59096920012487
20
80.176942274167914
42
0.41421356237310969
10
-230.88386241893829
20
80.176942274167914
10
-221.69147421893831
20
89.369330474167896
42
0.41421360379444527
10
-221.6914743095316
20
90.076437264761182
10
-230.88386241893829
20
99.268825455354431
42
0.41421356237310969
10
-231.59096920012487
20
99.268825455354431
10
-240.78335740012488
20
90.076437255354435
42
0.41421360379445266
10
-240.78335730953157
20
89.369330464761163
0
LWPOLYLINE
5
132
100
AcDbEntity
8
0
100
AcDbPolyline
90
8
70
1
43
0.0
10
-184.00426160012489
20
33.812142374168005
10
-193.1966498001249
20
43.004530574168022
42
-0.41421356237308765
10
-193.19664980012487
20
43.71163735535454
10
-184.00426160012495
20
52.904025555354494
42
-0.41421356237310608
10
-183.2971548189384
20
52.904025555354522
10
-174.10476661893838
20
43.71163735535454
42
-0.41421356237310969
10
-174.10476661893838
20
43.004530574167994
10
-183.29715476893838
20
33.812142424168037
42
-0.4142136037944637
0
LWPOLYLINE
5
133
100
AcDbEntity
8
0
100
AcDbPolyline
90
8
70
1
43
0.0
10
-305.36760785905136
20
54.523674030390424
10
-318.24109275905136
20
52.714423730390422
42
-0.41421356237308993
10
-318.80581334390217
20
53.139971214281168
10
-320.61506364390226
20
66.013456114281169
42
-0.41421356237308699
10
-320.18951616001146
20
66.578176699131959
10
-307.31603126001141
20
68.387426999131975
42
-0.41421356237308993
10
-306.75131067516065
20
67.961879515241222
10
-304.94206037516057
20
55.088394615241249
42
-0.4142135623731002
0
LWPOLYLINE
5
134
100
AcDbEntity
8
0
100
AcDbPolyline
90
8
70
1
43
0.0
10
-269.62683015905151
20
73.974624130390396
10
-282.5003150590515
20
72.165373830390422
42
-0.41421353084517509
10
-283.06503563641178
20
72.590921260983407
10
-284.87428593641175
20
85.464406160983387
42
-0.41421356237310752
10
-284.44873851330925
20
86.02912679164146
10
-271.57525361330931
20
87.838377091641448
42
-0.41421356237309576
10
-271.01053298265123
20
87.412829668538933
10
-269.20128267516071
20
74.539344715241214
42
-0.4142135623731002
0
LWPOLYLINE
5
135
100
AcDbEntity
8
0
100
AcDbPolyline
90
8
70
1
43
0.0
10
-325.55783830953141
20
61.304729764761177
10
-338.43132320575364
20
59.495479437880945
42
-0.41421359390102963
10
-338.99604384390216
20
59.92102691428115
10
-340.80529414390219
20
72.794511814281137
42
-0.41421356237309276
10
-340.37974666001139
20
73.359232399131955
10
-327.50626181330921
20
75.168482691641358
42
-0.41421356237314211
10
-326.94154118265118
20
74.742935268538943
10
-325.13229090953138
20
61.869450364761171
42
-0.41421356237307233
0
LWPOLYLINE
5
136
100
AcDbEntity
8
0
100
AcDbPolyline
90
4
70
1
43
0.0
10
-210.60811804079137
20
29.815917125924649
10
-237.56302853962251
20
56.770827624755739
10
-210.60811886207927
20
83.725737302298967
10
-183.65320836324815
20
56.77082680346787
0
LWPOLYLINE
5
137
100
AcDbEntity
8
0
100
AcDbPolyline
90
8
70
1
43
0.0
10
-287.82862495905147
20
66.607224930390402
10
-300.70210985905146
20
64.797974630390399
42
-0.41421356237308993
10
-301.26683044390228
20
65.223522114281153
10
-303.07608074390225
20
78.097007014281147
42
-0.41421356237310236
10
-302.65053326001146
20
78.66172759913195
10
-289.77704836001146
20
80.470977899131952
42
-0.41421356237307883
10
-289.2123277751607
20
80.045430415241213
10
-287.40307747516067
20
67.171945515241219
42
-0.4142135623731002
0
LWPOLYLINE
5
138
100
AcDbEntity
8
0
100
AcDbPolyline
90
8
70
1
43
0.0
10
-345.08525695905132
20
63.369633830390384
10
-357.95874180575362
20
61.560383537880973
42
-0.41421356237310103
10
-358.52346243641159
20
61.985930960983396
10
-360.33271273641162
20
74.859415860983361
42
-0.41421359390103107
10
-359.90716526001142
20
75.424136499131947
10
-347.03368036001143
20
77.233386799131964
42
-0.41421356237309276
10
-346.46895977516061
20
76.807839315241182
10
-344.65970947516064
20
63.934354415241202
42
-0.41421356237310752
0
LWPOLYLINE
5
139
100
AcDbEntity
8
0
100
AcDbPolyline
90
8
70
1
43
0.0
10
-262.01420335905152
20
98.513911730390362
10
-274.88768825905146
20
96.704661430390345
42
-0.41421356237309509
10
-275.45240884390228
20
97.130208914281098
10
-277.26165914390231
20
110.00369381428109
42
-0.41421356237309509
10
-276.83611166001151
20
110.56841439913191
10
-263.96262676001152
20
112.37766469913188
42
-0.41421356237309509
10
-263.39790617516076
20
111.95211721524112
10
-261.58865587516073
20
99.07863231524118
42
-0.41421356237309509
0
LWPOLYLINE
5
140
100
AcDbEntity
8
0
100
AcDbPolyline
90
8
70
1
43
0.0
10
-146.84701386001177
20
95.74615793039041
10
-159.72049876001171
20
97.555408230390412
42
-0.41421356237309509
10
-160.14604624390248
20
98.12012881524123
10
-158.3367959439025
20
110.99361371524117
42
-0.41421356237309509
10
-157.77207535905171
20
111.41916119913192
10
-144.89859045905172
20
109.60991089913193
42
-0.41421356237309509
10
-144.47304297516095
20
109.04519031428111
10
-146.28229327516098
20
96.171705414281149
42
-0.41421356237309648
0
LWPOLYLINE
5
141
100
AcDbEntity
8
0
100
AcDbPolyline
90
8
70
1
43
0.0
10
-68.082200060011871
20
23.117396430390549
42
0.41421356237309509
10
-67.517479475161053
20
23.542943914281302
10
-65.708229175161051
20
36.416428814281275
42
0.41421356237310092
10
-66.133776659051804
20
36.9811493991321
10
-79.007261559051784
20
38.790399699132088
42
0.41421356237308993
10
-79.571982143902602
20
38.364852215241342
10
-81.38123244390259
20
25.491367315241362
42
0.41421356237308915
10
-80.955684960011851
20
24.926646730390551
0
LWPOLYLINE
5
142
100
AcDbEntity
8
0
100
AcDbPolyline
90
4
70
1
43
0.0
10
-200.95163342666396
20
25.416994984769286
10
-200.95163342666396
20
-7.5830050152307038
10
-219.95163342666393
20
-7.5830050152307038
10
-219.95163342666393
20
25.416994984769286
0
LWPOLYLINE
5
143
100
AcDbEntity
8
0
100
AcDbPolyline
90
4
70
1
43
0.0
10
-164.81171930863479
20
24.729537599725084
10
-171.88578687297391
20
31.793401665166208
10
-169.76599806142269
20
33.916252435809824
10
-162.68982882594395
20
26.850289730639059
0
ENDSEC
0
SECTION
2
OBJECTS
0
DICTIONARY
5
C
100
AcDbDictionary
3
ACAD_GROUP
350
D
3
ACAD_MLINESTYLE
350
17
0
DICTIONARY
5
D
100
AcDbDictionary
0
DICTIONARY
5
1A
330
C
100
AcDbDictionary
0
DICTIONARY
5
17
100
AcDbDictionary
0
ENDSEC
0
EOF
